<svg width="73" height="73" viewBox="0 0 73 73" fill="none" xmlns="http://www.w3.org/2000/svg">
<path fill-rule="evenodd" clip-rule="evenodd" d="M36.5 72.75C56.5203 72.75 72.75 56.5203 72.75 36.5C72.75 16.4797 56.5203 0.25 36.5 0.25C16.4797 0.25 0.25 16.4797 0.25 36.5C0.25 56.5203 16.4797 72.75 36.5 72.75ZM56.6506 27.4385C57.6521 26.3198 57.5572 24.601 56.4385 23.5994C55.3198 22.5979 53.601 22.6928 52.5994 23.8115L40.3862 37.453C37.9114 40.2172 36.2448 42.069 34.8199 43.2666C33.4625 44.4075 32.6652 44.6562 31.9688 44.6562C31.2723 44.6562 30.475 44.4075 29.1176 43.2666C27.6927 42.069 26.0261 40.2172 23.5513 37.453L20.4006 33.9338C19.399 32.8151 17.6802 32.7202 16.5615 33.7218C15.4428 34.7233 15.3479 36.4421 16.3494 37.5608L19.6348 41.2304C21.9398 43.805 23.8623 45.9526 25.619 47.4291C27.4773 48.991 29.4817 50.0938 31.9688 50.0938C34.4558 50.0938 36.4602 48.991 38.3185 47.4291C40.0752 45.9526 41.9977 43.8051 44.3027 41.2304L56.6506 27.4385Z" fill="#28A745"/>
</svg>
