<svg width="12" height="12" viewBox="0 0 12 12" fill="none" xmlns="http://www.w3.org/2000/svg">
<path fill-rule="evenodd" clip-rule="evenodd" d="M5.99585 7.05644L10.2366 11.2974C10.3779 11.434 10.5673 11.5096 10.7638 11.5079C10.9604 11.5062 11.1484 11.4273 11.2874 11.2883C11.4264 11.1493 11.5052 10.9613 11.5069 10.7647C11.5087 10.5681 11.4331 10.3788 11.2965 10.2374L7.05584 5.99638L11.2965 1.75537C11.4331 1.61398 11.5087 1.42461 11.5069 1.22804C11.5052 1.03147 11.4264 0.843442 11.2874 0.704443C11.1484 0.565444 10.9604 0.4866 10.7638 0.484892C10.5673 0.483184 10.3779 0.558748 10.2366 0.69531L5.99585 4.93631L1.75515 0.69531C1.61313 0.562124 1.42487 0.489419 1.2302 0.492581C1.03554 0.495742 0.849734 0.574521 0.712113 0.712249C0.574493 0.849977 0.49585 1.03585 0.492827 1.23053C0.489803 1.42522 0.562636 1.61344 0.695914 1.75537L4.93586 5.99638L0.695164 10.2374C0.623566 10.3065 0.566457 10.3893 0.527169 10.4807C0.487882 10.5722 0.467202 10.6706 0.466337 10.7701C0.465472 10.8697 0.484439 10.9684 0.522131 11.0605C0.559824 11.1526 0.615487 11.2363 0.685872 11.3067C0.756258 11.3771 0.839956 11.4328 0.932084 11.4705C1.02421 11.5082 1.12292 11.5272 1.22246 11.5263C1.322 11.5254 1.42036 11.5047 1.51182 11.4654C1.60328 11.4262 1.686 11.369 1.75515 11.2974L5.99585 7.05644Z" fill="#DC3545"/>
</svg>
