<svg width="21" height="20" viewBox="0 0 21 20" fill="none" xmlns="http://www.w3.org/2000/svg">
<path fill-rule="evenodd" clip-rule="evenodd" d="M18.8332 10.3634C18.8332 9.76039 18.7791 9.18061 18.6786 8.62402H10.6699V11.9133H15.2463C15.0492 12.9762 14.4501 13.8768 13.5495 14.4798V16.6134H16.2976C17.9056 15.133 18.8332 12.953 18.8332 10.3634Z" fill="white"/>
<path fill-rule="evenodd" clip-rule="evenodd" d="M10.6698 18.6734C12.9657 18.6734 14.8905 17.912 16.2975 16.6133L13.5493 14.4797C12.7879 14.9899 11.8139 15.2914 10.6698 15.2914C8.45501 15.2914 6.58039 13.7955 5.91171 11.7856H3.0708V13.9888C4.47 16.7679 7.3457 18.6734 10.6698 18.6734Z" fill="white"/>
<path fill-rule="evenodd" clip-rule="evenodd" d="M5.91187 11.7858C5.7418 11.2756 5.64517 10.7306 5.64517 10.1701C5.64517 9.60967 5.7418 9.06468 5.91187 8.55447V6.35132H3.07096C2.49504 7.49928 2.1665 8.79798 2.1665 10.1701C2.1665 11.5423 2.49504 12.841 3.07096 13.9889L5.91187 11.7858Z" fill="white"/>
<path fill-rule="evenodd" clip-rule="evenodd" d="M10.6698 5.04879C11.9182 5.04879 13.0391 5.47782 13.9204 6.32043L16.3593 3.8815C14.8867 2.50936 12.9618 1.66675 10.6698 1.66675C7.3457 1.66675 4.47 3.57229 3.0708 6.35135L5.91171 8.55451C6.58039 6.54461 8.45501 5.04879 10.6698 5.04879Z" fill="white"/>
</svg>
