<svg width="20" height="20" viewBox="0 0 20 20" fill="none" xmlns="http://www.w3.org/2000/svg">
<path fill-rule="evenodd" clip-rule="evenodd" d="M11.3337 3.45421C12.7285 2.56948 14.9809 1.73287 16.9261 3.71653C21.5436 8.4254 13.625 17.4993 9.99985 17.4993C6.37473 17.4993 -1.5439 8.4254 3.07361 3.71653C5.01877 1.73289 7.2712 2.56949 8.66592 3.45421C9.45399 3.95411 10.5457 3.95411 11.3337 3.45421ZM6.49052 5.58351C6.81319 5.46089 6.97536 5.09992 6.85275 4.77725C6.73013 4.45458 6.36916 4.29241 6.04649 4.41503C5.57087 4.59577 5.11103 4.88963 4.68084 5.31613C4.13556 5.85676 3.77228 6.47067 3.56926 7.12903C3.46754 7.45888 3.65248 7.80874 3.98233 7.91046C4.31218 8.01217 4.66204 7.82723 4.76375 7.49738C4.90539 7.03808 5.15947 6.60183 5.56093 6.2038C5.87616 5.89126 6.18994 5.69773 6.49052 5.58351Z" fill="#FA219D" stroke="#FF92D0" stroke-linecap="round"/>
</svg>
