<svg width="20" height="20" viewBox="0 0 20 20" fill="none" xmlns="http://www.w3.org/2000/svg">
<path fill-rule="evenodd" clip-rule="evenodd" d="M8.16874 12.7106C8.68914 13.0633 9.32337 13.2766 9.99825 13.2766C11.7871 13.2766 13.2426 11.8081 13.2426 10.0032C13.2426 9.32221 13.0312 8.68228 12.6815 8.1572L11.7952 9.05147C11.9416 9.33041 12.0229 9.65858 12.0229 10.0032C12.0229 11.1271 11.1122 12.046 9.99825 12.046C9.65674 12.046 9.3315 11.964 9.05504 11.8163L8.16874 12.7106ZM15.3567 5.45801C16.5357 6.54097 17.5358 8.00132 18.2839 9.75703C18.3489 9.91291 18.3489 10.0934 18.2839 10.2411C16.5438 14.3268 13.4459 16.7717 9.99825 16.7717H9.99012C8.42081 16.7717 6.91654 16.2548 5.59117 15.3113L4.01372 16.9029C3.89176 17.026 3.73726 17.0834 3.58277 17.0834C3.42828 17.0834 3.26566 17.026 3.15182 16.9029C2.94854 16.6978 2.91602 16.3696 3.07864 16.1317L3.10303 16.0989L15.129 3.96484C15.1453 3.94843 15.1615 3.93202 15.1697 3.91561L15.1697 3.91561C15.1859 3.8992 15.2022 3.8828 15.2103 3.86639L15.9746 3.09519C16.2186 2.85727 16.6007 2.85727 16.8366 3.09519C17.0805 3.33311 17.0805 3.72692 16.8366 3.96484L15.3567 5.45801ZM6.74799 10.0064C6.74799 10.2197 6.77238 10.433 6.8049 10.6299L3.79638 13.6654C2.98326 12.7138 2.27585 11.5652 1.7148 10.2443C1.64975 10.0966 1.64975 9.91611 1.7148 9.76023C3.45487 5.67452 6.55284 3.23786 9.99232 3.23786H10.0004C11.1632 3.23786 12.2934 3.51681 13.3342 4.04188L10.6184 6.78209C10.4233 6.74928 10.2119 6.72466 10.0004 6.72466C8.20346 6.72466 6.74799 8.19322 6.74799 10.0064Z" fill="#9E9E9E"/>
</svg>
