<svg width="16" height="16" viewBox="0 0 16 16" fill="none" xmlns="http://www.w3.org/2000/svg">
<path fill-rule="evenodd" clip-rule="evenodd" d="M3.82047 2.72417C1.82036 4.17734 0.820302 4.90392 0.427523 5.97718C0.396014 6.06328 0.367674 6.1505 0.342558 6.23868C0.0294739 7.33784 0.411461 8.51347 1.17544 10.8647C1.93941 13.216 2.3214 14.3917 3.22076 15.0969C3.2929 15.1534 3.3671 15.2073 3.4432 15.2585C4.39181 15.8959 5.62795 15.8959 8.10022 15.8959C10.5725 15.8959 11.8086 15.8959 12.7573 15.2585C12.8333 15.2073 12.9075 15.1534 12.9797 15.0969C13.8791 14.3917 14.261 13.216 15.025 10.8647C15.789 8.51347 16.171 7.33784 15.8579 6.23868C15.8328 6.1505 15.8044 6.06328 15.7729 5.97718C15.3801 4.90392 14.3801 4.17734 12.38 2.72418C10.3799 1.27101 9.37981 0.544419 8.2377 0.502521C8.14608 0.49916 8.05437 0.49916 7.96275 0.502521C6.82064 0.544419 5.82058 1.271 3.82047 2.72417ZM6.60022 11.8022C6.28956 11.8022 6.03772 12.0541 6.03772 12.3647C6.03772 12.6754 6.28956 12.9272 6.60022 12.9272H9.60022C9.91088 12.9272 10.1627 12.6754 10.1627 12.3647C10.1627 12.0541 9.91088 11.8022 9.60022 11.8022H6.60022Z" fill="#FAFAFA"/>
</svg>
