<svg width="137" height="46" viewBox="0 0 137 46" fill="none" xmlns="http://www.w3.org/2000/svg">
<g clip-path="url(#clip0_270_17849)">
<path d="M125.453 18.8026C126.398 17.7613 129.462 16.6004 128.701 15.1142C128.592 14.9104 128.432 14.7372 128.238 14.6103C128.043 14.4834 127.82 14.4069 127.588 14.3878C126.096 14.2435 123.4 14.2283 122.715 13.4206C121.944 12.5101 121.562 8.67736 120.435 8.33929C120.085 8.23404 119.29 8.21252 119.035 8.47563C118.391 9.14459 117.931 12.1656 117.382 13.1113C116.157 15.2266 110.435 13.0642 111.12 15.9019C111.503 17.487 115.259 17.8673 114.999 20.7879C114.883 22.0939 113.486 24.1654 114.299 25.1293C116.033 27.1848 118.365 23.5769 120.112 23.5753C121.359 23.5753 123.108 25.9346 124.566 25.7536C125.049 25.693 125.83 25.0655 125.881 24.5577C125.943 23.9294 124.942 21.7359 124.85 20.8062C124.759 19.8766 124.841 19.4707 125.451 18.7994L125.453 18.8026Z" fill="#4A49E0"/>
<path d="M137 9.2665V23.4804C136.999 26.2632 135.884 28.9319 133.898 30.8994C131.913 32.867 129.22 33.9724 126.412 33.9724H120.62C120.526 33.9723 120.435 34.0076 120.366 34.0712L115.129 38.911C114.921 39.1028 114.648 39.209 114.364 39.2081C114.08 39.2073 113.807 39.0993 113.6 38.9062L112.347 37.7341C112.257 37.6494 112.184 37.5475 112.134 37.4346C112.084 37.3217 112.057 37.1999 112.055 37.0766C112.053 36.9532 112.077 36.8307 112.123 36.7164C112.17 36.602 112.239 36.498 112.327 36.4106L114.783 33.9716L118.499 30.2816C118.639 30.1428 118.829 30.0648 119.026 30.0647H126.595C128.229 30.0634 129.795 29.4192 130.95 28.2737C132.105 27.1281 132.754 25.575 132.754 23.9556V9.33427C132.754 7.883 132.172 6.49116 131.137 5.46496C130.101 4.43875 128.697 3.86224 127.233 3.86224H112.481C111.733 3.86234 110.992 4.00854 110.301 4.29249C109.609 4.57644 108.981 4.99257 108.452 5.51713C107.923 6.04169 107.503 6.66441 107.217 7.34973C106.931 8.03504 106.783 8.76954 106.783 9.51128V11.7438C106.783 11.9396 106.705 12.1274 106.565 12.2659C106.425 12.4043 106.236 12.4821 106.038 12.4821H103.464C103.267 12.4821 103.077 12.4043 102.937 12.2659C102.798 12.1274 102.719 11.9396 102.719 11.7438V9.26411C102.719 8.04712 102.962 6.84209 103.432 5.71784C103.902 4.5936 104.591 3.57217 105.459 2.71189C106.328 1.8516 107.359 1.16932 108.493 0.704012C109.628 0.238702 110.844 -0.000522777 112.072 8.57774e-07H127.651C130.131 8.57774e-07 132.508 0.976205 134.262 2.71386C136.015 4.45152 137 6.80828 137 9.2657V9.2665Z" fill="#4A49E0"/>
<path d="M5.09132 6.87451H0.986143C0.574729 6.87451 0.241211 7.20507 0.241211 7.61283V37.4056C0.241211 37.8134 0.574729 38.144 0.986143 38.144H5.09132C5.50273 38.144 5.83625 37.8134 5.83625 37.4056V7.61283C5.83625 7.20507 5.50273 6.87451 5.09132 6.87451Z" fill="#4E35CE"/>
<path d="M84.8276 16.4258H80.7425C80.3311 16.4258 79.9976 16.7563 79.9976 17.1641V37.527C79.9976 37.9347 80.3311 38.2653 80.7425 38.2653H84.8276C85.239 38.2653 85.5725 37.9347 85.5725 37.527V17.1641C85.5725 16.7563 85.239 16.4258 84.8276 16.4258Z" fill="#5D62E0"/>
<path d="M101.489 15.2952C98.9956 15.2952 96.7142 16.2982 94.9387 17.9702C94.9259 17.9842 94.9091 17.9939 94.8905 17.998C94.8718 18.0022 94.8524 18.0005 94.8348 17.9932C94.8172 17.986 94.8023 17.9735 94.7921 17.9576C94.7819 17.9416 94.7769 17.9229 94.7779 17.904V16.846C94.7779 16.6501 94.6994 16.4624 94.5597 16.3239C94.42 16.1854 94.2305 16.1076 94.0329 16.1076H90.1554C89.9578 16.1076 89.7682 16.1854 89.6284 16.3238C89.4886 16.4623 89.4099 16.6501 89.4097 16.846V44.9429C89.4097 45.0399 89.429 45.136 89.4665 45.2256C89.5039 45.3152 89.5589 45.3966 89.6281 45.4652C89.6974 45.5338 89.7796 45.5881 89.8701 45.6252C89.9606 45.6623 90.0575 45.6813 90.1554 45.6812H94.0329C94.1308 45.6813 94.2277 45.6623 94.3181 45.6252C94.4085 45.5881 94.4907 45.5337 94.5599 45.4652C94.6291 45.3966 94.684 45.3151 94.7214 45.2255C94.7588 45.1359 94.778 45.0398 94.7779 44.9429V35.792C94.7769 35.7731 94.7819 35.7544 94.7921 35.7384C94.8023 35.7224 94.8172 35.71 94.8348 35.7027C94.8524 35.6955 94.8718 35.6938 94.8905 35.6979C94.9091 35.7021 94.9259 35.7118 94.9387 35.7258C96.7142 37.4002 98.9973 38.4008 101.489 38.4008C107.143 38.4008 111.727 33.2278 111.727 26.8476C111.727 20.4674 107.142 15.296 101.489 15.296V15.2952ZM100.407 33.329C97.1164 33.329 94.4488 30.4969 94.4488 27.0039C94.4488 23.5108 97.1164 20.6803 100.407 20.6803C103.699 20.6803 106.057 23.4422 106.057 26.9353C106.057 30.4284 103.697 33.329 100.407 33.329Z" fill="#5D62E0"/>
<path d="M20.3657 15.3125C14.0105 15.3125 8.85547 20.4991 8.85547 26.8976C8.85547 33.2961 14.0089 38.4827 20.3657 38.4827C26.7226 38.4827 31.8744 33.2961 31.8744 26.8976C31.8744 20.4991 26.7258 15.3125 20.3657 15.3125ZM20.3657 33.2969C17.0497 33.2969 14.3612 30.4537 14.3612 26.9455C14.3612 23.4372 17.0497 20.594 20.3657 20.594C23.6817 20.594 26.371 23.438 26.371 26.9455C26.371 30.4529 23.6825 33.2969 20.3657 33.2969Z" fill="#9279D2"/>
<path d="M45.7563 15.3125C39.4011 15.3125 34.2461 20.4991 34.2461 26.8976C34.2461 33.2961 39.3995 38.4827 45.7563 38.4827C52.1132 38.4827 57.2674 33.3001 57.2674 26.8976C57.2674 20.4951 52.114 15.3125 45.7563 15.3125ZM45.7563 33.2969C42.4404 33.2969 39.7518 30.4537 39.7518 26.9455C39.7518 23.4372 42.4404 20.594 45.7563 20.594C49.0723 20.594 51.7617 23.438 51.7617 26.9455C51.7617 30.4529 49.0731 33.2969 45.7563 33.2969Z" fill="#764FED"/>
<path d="M82.7044 13.9635C84.5087 13.9635 85.9713 12.4914 85.9713 10.6754C85.9713 8.85937 84.5087 7.38721 82.7044 7.38721C80.9001 7.38721 79.4375 8.85937 79.4375 10.6754C79.4375 12.4914 80.9001 13.9635 82.7044 13.9635Z" fill="#5D62E0"/>
<path d="M73.1033 21.9009L75.5642 20.7846C75.6838 20.7308 75.7905 20.6524 75.8773 20.5548C75.9642 20.4571 76.0292 20.3423 76.068 20.2179C76.1068 20.0935 76.1187 19.9624 76.1027 19.8332C76.0867 19.704 76.0433 19.5796 75.9753 19.4682C75.0381 17.9342 72.5796 15.0375 67.4874 15.3094C67.4874 15.3094 59.2987 15.5326 60.0815 23.5425C60.178 24.5593 60.5916 25.521 61.2649 26.2941C62.4418 27.6352 64.8166 29.3566 69.2162 29.2498C69.8279 29.2259 70.4289 29.4146 70.9152 29.7832C71.4317 30.1874 71.8653 30.842 71.5346 31.8451C71.5346 31.8451 71.3737 33.5641 68.933 33.8097C68.933 33.8097 65.7771 34.2243 63.2961 31.5094C63.2004 31.4037 63.076 31.3275 62.9378 31.2899C62.7996 31.2523 62.6534 31.2549 62.5166 31.2973L60.2295 32.0149C60.0032 32.0865 59.813 32.2409 59.6976 32.4467C59.5822 32.6525 59.5503 32.8941 59.6085 33.1224C59.9359 34.4236 61.0718 36.8371 65.0193 37.8904C65.2534 37.9526 65.4843 38.0275 65.7143 38.1049C66.8551 38.4892 70.7366 39.4659 74.2899 36.4935C75.105 35.8168 75.7577 34.9686 76.2005 34.0106C76.5899 33.1567 76.9664 31.9862 76.9503 30.6754C76.9237 28.5944 75.6261 26.739 73.7131 25.8811C72.4903 25.3325 70.7318 24.8446 68.316 24.8095C67.7778 24.8048 67.2461 24.6934 66.7521 24.4818C65.9122 24.115 64.963 23.36 65.2381 21.8458C65.3008 21.4972 65.4431 21.1673 65.6541 20.8814C65.865 20.5955 66.139 20.3611 66.4552 20.1962C67.5332 19.638 69.5363 19.3008 72.2924 21.7749C72.4003 21.872 72.5345 21.9357 72.6784 21.9581C72.8224 21.9805 72.9698 21.9606 73.1025 21.9009H73.1033Z" fill="#5D62E0"/>
<path d="M4.85011 6.95435H0.744933C0.333518 6.95435 0 7.2849 0 7.69267V37.4855C0 37.8932 0.333518 38.2238 0.744933 38.2238H4.85011C5.26152 38.2238 5.59504 37.8932 5.59504 37.4855V7.69267C5.59504 7.2849 5.26152 6.95435 4.85011 6.95435Z" fill="url(#paint0_linear_270_17849)"/>
<path d="M84.4252 16.4258H80.3401C79.9287 16.4258 79.5952 16.7563 79.5952 17.1641V37.527C79.5952 37.9347 79.9287 38.2653 80.3401 38.2653H84.4252C84.8366 38.2653 85.1701 37.9347 85.1701 37.527V17.1641C85.1701 16.7563 84.8366 16.4258 84.4252 16.4258Z" fill="url(#paint1_linear_270_17849)"/>
<path d="M101.168 15.614C98.6739 15.614 96.3924 16.617 94.617 18.289C94.6042 18.303 94.5873 18.3128 94.5687 18.3169C94.5501 18.321 94.5306 18.3193 94.513 18.3121C94.4954 18.3048 94.4805 18.2924 94.4703 18.2764C94.4601 18.2604 94.4551 18.2417 94.4561 18.2229V17.1648C94.4561 16.969 94.3776 16.7812 94.2379 16.6427C94.0982 16.5043 93.9087 16.4265 93.7111 16.4265H89.8336C89.636 16.4265 89.4464 16.5042 89.3066 16.6427C89.1668 16.7811 89.0881 16.9689 89.0879 17.1648V45.2617C89.0879 45.3587 89.1072 45.4548 89.1447 45.5444C89.1822 45.6341 89.2371 45.7155 89.3064 45.7841C89.3756 45.8526 89.4578 45.907 89.5483 45.944C89.6388 45.9811 89.7357 46.0001 89.8336 46H93.7111C93.809 46.0001 93.9059 45.9811 93.9963 45.944C94.0868 45.907 94.1689 45.8526 94.2381 45.784C94.3073 45.7154 94.3622 45.634 94.3996 45.5444C94.437 45.4547 94.4562 45.3587 94.4561 45.2617V36.1108C94.4551 36.0919 94.4601 36.0732 94.4703 36.0573C94.4805 36.0413 94.4954 36.0288 94.513 36.0216C94.5306 36.0143 94.5501 36.0127 94.5687 36.0168C94.5873 36.0209 94.6042 36.0306 94.617 36.0446C96.3924 37.719 98.6755 38.7197 101.168 38.7197C106.821 38.7197 111.405 33.5466 111.405 27.1664C111.405 20.7863 106.82 15.6148 101.168 15.6148V15.614ZM100.086 33.6479C96.7947 33.6479 94.127 30.8158 94.127 27.3227C94.127 23.8296 96.7947 20.9991 100.086 20.9991C103.377 20.9991 105.735 23.7611 105.735 27.2541C105.735 30.7472 103.375 33.6479 100.086 33.6479Z" fill="url(#paint2_linear_270_17849)"/>
<path d="M20.0439 15.6316C13.6887 15.6316 8.53369 20.8182 8.53369 27.2167C8.53369 33.6152 13.6871 38.8018 20.0439 38.8018C26.4008 38.8018 31.5526 33.6152 31.5526 27.2167C31.5526 20.8182 26.404 15.6316 20.0439 15.6316ZM20.0439 33.616C16.7279 33.616 14.0394 30.7728 14.0394 27.2645C14.0394 23.7563 16.7279 20.9131 20.0439 20.9131C23.3599 20.9131 26.0493 23.7571 26.0493 27.2645C26.0493 30.772 23.3607 33.616 20.0439 33.616Z" fill="url(#paint3_linear_270_17849)"/>
<path d="M45.4346 15.6316C39.0793 15.6316 33.9243 20.8182 33.9243 27.2167C33.9243 33.6152 39.0777 38.8018 45.4346 38.8018C51.7914 38.8018 56.9456 33.6192 56.9456 27.2167C56.9456 20.8142 51.7922 15.6316 45.4346 15.6316ZM45.4346 33.616C42.1186 33.616 39.4301 30.7728 39.4301 27.2645C39.4301 23.7563 42.1186 20.9131 45.4346 20.9131C48.7506 20.9131 51.4399 23.7571 51.4399 27.2645C51.4399 30.772 48.7514 33.616 45.4346 33.616Z" fill="url(#paint4_linear_270_17849)"/>
<path d="M82.3826 14.0434C84.1869 14.0434 85.6496 12.5712 85.6496 10.7552C85.6496 8.9392 84.1869 7.46704 82.3826 7.46704C80.5784 7.46704 79.1157 8.9392 79.1157 10.7552C79.1157 12.5712 80.5784 14.0434 82.3826 14.0434Z" fill="url(#paint5_linear_270_17849)"/>
<path d="M72.7815 22.2197L75.2424 21.1034C75.362 21.0496 75.4687 20.9713 75.5556 20.8736C75.6424 20.7759 75.7074 20.6611 75.7462 20.5368C75.7851 20.4124 75.7969 20.2813 75.7809 20.1521C75.7649 20.0228 75.7215 19.8984 75.6535 19.7871C74.7163 18.253 72.2578 15.3563 67.1656 15.6282C67.1656 15.6282 58.977 15.8515 59.7597 23.8614C59.8562 24.8781 60.2698 25.8399 60.9431 26.613C62.12 27.9541 64.4948 29.6755 68.8944 29.5686C69.5061 29.5447 70.1071 29.7334 70.5934 30.102C71.1099 30.5063 71.5435 31.1609 71.2128 32.1639C71.2128 32.1639 71.052 33.883 68.6112 34.1285C68.6112 34.1285 65.4553 34.5431 62.9743 31.8282C62.8786 31.7225 62.7542 31.6463 62.616 31.6087C62.4778 31.5711 62.3316 31.5737 62.1948 31.6162L59.9077 32.3338C59.6814 32.4053 59.4912 32.5598 59.3758 32.7655C59.2604 32.9713 59.2285 33.213 59.2867 33.4412C59.6141 34.7425 60.75 37.156 64.6975 38.2092C64.9316 38.2714 65.1625 38.3464 65.3926 38.4237C66.5333 38.808 70.4148 39.7847 73.9681 36.8123C74.7832 36.1357 75.4359 35.2875 75.8787 34.3295C76.2681 33.4755 76.6446 32.305 76.6285 30.9943C76.6019 28.9132 75.3043 27.0579 73.3913 26.1999C72.1685 25.6514 70.41 25.1634 67.9942 25.1283C67.4561 25.1236 66.9243 25.0122 66.4303 24.8006C65.5905 24.4339 64.6412 23.6788 64.9163 22.1647C64.9791 21.816 65.1213 21.4861 65.3323 21.2003C65.5432 20.9144 65.8172 20.68 66.1335 20.515C67.2114 19.9569 69.2146 19.6196 71.9707 22.0937C72.0785 22.1909 72.2127 22.2546 72.3567 22.277C72.5006 22.2994 72.6481 22.2795 72.7807 22.2197H72.7815Z" fill="url(#paint6_linear_270_17849)"/>
<path d="M136.759 9.42592V23.6398C136.758 26.4226 135.643 29.0913 133.657 31.0589C131.672 33.0264 128.979 34.1318 126.171 34.1318H120.379C120.285 34.1317 120.194 34.1671 120.125 34.2307L114.888 39.0704C114.68 39.2622 114.406 39.3685 114.122 39.3676C113.839 39.3667 113.566 39.2587 113.359 39.0656L112.106 37.8936C112.015 37.8088 111.943 37.707 111.893 37.594C111.843 37.4811 111.816 37.3594 111.814 37.236C111.812 37.1126 111.835 36.9902 111.882 36.8758C111.929 36.7614 111.998 36.6574 112.086 36.57L114.542 34.131L118.258 30.441C118.398 30.3022 118.587 30.2242 118.785 30.2241H126.354C127.988 30.2228 129.554 29.5787 130.709 28.4331C131.864 27.2876 132.513 25.7344 132.513 24.115V9.4937C132.513 8.04242 131.931 6.65059 130.896 5.62438C129.86 4.59818 128.456 4.02166 126.992 4.02166H112.24C111.492 4.02177 110.751 4.16797 110.059 4.45191C109.368 4.73586 108.74 5.15199 108.211 5.67656C107.682 6.20112 107.262 6.82383 106.976 7.50915C106.689 8.19447 106.542 8.92896 106.542 9.6707V11.9032C106.542 12.099 106.464 12.2868 106.324 12.4253C106.184 12.5637 105.995 12.6415 105.797 12.6415H103.223C103.025 12.6415 102.836 12.5637 102.696 12.4253C102.557 12.2868 102.478 12.099 102.478 11.9032V9.42353C102.478 8.20654 102.72 7.00151 103.19 5.87727C103.661 4.75303 104.35 3.73159 105.218 2.87131C106.087 2.01103 107.118 1.32875 108.252 0.863436C109.387 0.398125 110.603 0.158901 111.831 0.159425H127.41C129.889 0.159425 132.267 1.13563 134.02 2.87328C135.774 4.61094 136.759 6.96771 136.759 9.42512V9.42592Z" fill="url(#paint7_linear_270_17849)"/>
<path d="M125.131 18.8822C126.076 17.8409 129.14 16.68 128.379 15.1937C128.27 14.99 128.111 14.8168 127.916 14.6899C127.722 14.563 127.498 14.4865 127.266 14.4674C125.774 14.3231 123.078 14.3079 122.393 13.5002C121.623 12.5897 121.241 8.75695 120.113 8.41888C119.763 8.31363 118.968 8.29211 118.713 8.55522C118.069 9.22418 117.609 12.2452 117.061 13.1909C115.835 15.3062 110.113 13.1438 110.798 15.9815C111.181 17.5666 114.937 17.9469 114.677 20.8675C114.561 22.1735 113.164 24.245 113.977 25.2089C115.712 27.2644 118.043 23.6565 119.79 23.6549C121.037 23.6549 122.786 26.0142 124.244 25.8332C124.727 25.7726 125.508 25.1451 125.559 24.6372C125.622 24.009 124.62 21.8155 124.528 20.8858C124.437 19.9562 124.52 19.5503 125.129 18.879L125.131 18.8822Z" fill="url(#paint8_linear_270_17849)"/>
</g>
<defs>
<linearGradient id="paint0_linear_270_17849" x1="0" y1="22.5891" x2="5.59504" y2="22.5891" gradientUnits="userSpaceOnUse">
<stop stop-color="#E52A93"/>
<stop offset="1" stop-color="#E22BA8"/>
</linearGradient>
<linearGradient id="paint1_linear_270_17849" x1="79.5952" y1="27.3459" x2="85.1701" y2="27.3459" gradientUnits="userSpaceOnUse">
<stop stop-color="#7833C1"/>
<stop offset="1" stop-color="#5643C1"/>
</linearGradient>
<linearGradient id="paint2_linear_270_17849" x1="89.0919" y1="30.807" x2="111.405" y2="30.807" gradientUnits="userSpaceOnUse">
<stop offset="0.05" stop-color="#7137CA"/>
<stop offset="1" stop-color="#4E38D2"/>
</linearGradient>
<linearGradient id="paint3_linear_270_17849" x1="8.53369" y1="27.2167" x2="31.555" y2="27.2167" gradientUnits="userSpaceOnUse">
<stop stop-color="#E9299D"/>
<stop offset="1" stop-color="#BC2CA6"/>
</linearGradient>
<linearGradient id="paint4_linear_270_17849" x1="33.9243" y1="27.2167" x2="56.9456" y2="27.2167" gradientUnits="userSpaceOnUse">
<stop stop-color="#BC25A7"/>
<stop offset="1" stop-color="#8F2EB8"/>
</linearGradient>
<linearGradient id="paint5_linear_270_17849" x1="79.1157" y1="10.7552" x2="85.6496" y2="10.7552" gradientUnits="userSpaceOnUse">
<stop stop-color="#7833C1"/>
<stop offset="1" stop-color="#5643C1"/>
</linearGradient>
<linearGradient id="paint6_linear_270_17849" x1="59.2585" y1="27.254" x2="76.6309" y2="27.254" gradientUnits="userSpaceOnUse">
<stop stop-color="#8137B5"/>
<stop offset="1" stop-color="#5643C1"/>
</linearGradient>
<linearGradient id="paint7_linear_270_17849" x1="102.484" y1="19.764" x2="136.759" y2="19.764" gradientUnits="userSpaceOnUse">
<stop offset="0.02" stop-color="#7138C1"/>
<stop offset="0.29" stop-color="#8B34CA"/>
<stop offset="0.47" stop-color="#7D35CC"/>
<stop offset="0.82" stop-color="#5939D3"/>
<stop offset="1" stop-color="#443CD7"/>
</linearGradient>
<linearGradient id="paint8_linear_270_17849" x1="110.742" y1="17.0938" x2="128.499" y2="17.0938" gradientUnits="userSpaceOnUse">
<stop offset="0.05" stop-color="#7138C1"/>
<stop offset="1" stop-color="#443CD7"/>
</linearGradient>
<clipPath id="clip0_270_17849">
<rect width="137" height="46" fill="white"/>
</clipPath>
</defs>
</svg>
