<svg width="22" height="21" viewBox="0 0 22 21" fill="none" xmlns="http://www.w3.org/2000/svg">
<path d="M7.75 8.74927C7.75 9.30155 7.30228 9.74927 6.75 9.74927C6.19772 9.74927 5.75 9.30155 5.75 8.74927C5.75 8.19698 6.19772 7.74927 6.75 7.74927C7.30228 7.74927 7.75 8.19698 7.75 8.74927Z" fill="#FAFAFA"/>
<path d="M11.75 8.74927C11.75 9.30155 11.3023 9.74927 10.75 9.74927C10.1977 9.74927 9.75 9.30155 9.75 8.74927C9.75 8.19698 10.1977 7.74927 10.75 7.74927C11.3023 7.74927 11.75 8.19698 11.75 8.74927Z" fill="#FAFAFA"/>
<path d="M15.75 8.74927C15.75 9.30155 15.3023 9.74927 14.75 9.74927C14.1977 9.74927 13.75 9.30155 13.75 8.74927C13.75 8.19698 14.1977 7.74927 14.75 7.74927C15.3023 7.74927 15.75 8.19698 15.75 8.74927Z" fill="#FAFAFA"/>
<path fill-rule="evenodd" clip-rule="evenodd" d="M16 2.74927C16 1.23048 17.2312 -0.000732422 18.75 -0.000732422C20.2688 -0.000732422 21.5 1.23048 21.5 2.74927C21.5 4.26805 20.2688 5.49927 18.75 5.49927C17.2312 5.49927 16 4.26805 16 2.74927ZM18.75 1.49927C18.0596 1.49927 17.5 2.05891 17.5 2.74927C17.5 3.43962 18.0596 3.99927 18.75 3.99927C19.4404 3.99927 20 3.43962 20 2.74927C20 2.05891 19.4404 1.49927 18.75 1.49927Z" fill="#FAFAFA"/>
<path d="M20.407 6.391C20.8675 6.18113 21.4854 6.4542 21.4925 6.96024C21.5 7.48518 21.5 8.06732 21.5 8.71564L21.5 10.0804C21.5002 11.629 21.5004 12.5736 21.2677 13.3671C20.7167 15.2464 19.2471 16.7159 17.3679 17.267C16.5744 17.4996 15.6297 17.4995 14.0811 17.4993L13.3854 17.4993L13.3251 17.4994C12.4579 17.5049 11.6132 17.7756 10.9043 18.2752L10.8551 18.3101L8.24441 20.1749C6.7399 21.2496 4.76288 19.6976 5.44954 17.981C5.54183 17.7502 5.37191 17.4993 5.12341 17.4993H4.52166C2.02441 17.4993 7.81351e-08 15.4749 7.81351e-08 12.9776V8.71571C-4.69024e-06 7.34399 -8.32975e-06 6.26855 0.0706118 5.4042C0.142522 4.52406 0.291378 3.79695 0.626713 3.13882C1.17798 2.05689 2.05762 1.17725 3.13955 0.62598C3.79768 0.290646 4.52479 0.14179 5.40494 0.0698794C6.26929 -0.000740804 7.34472 -0.00073717 8.71644 -0.000732342H12.7836C13.4319 -0.000734624 14.0141 -0.00073648 14.539 0.00671916C15.0451 0.013906 15.3181 0.631764 15.1083 1.09228C14.9978 1.33469 14.7616 1.50989 14.4952 1.50627C13.9889 1.4994 13.4133 1.49927 12.75 1.49927H8.75C7.33749 1.49927 6.32322 1.49985 5.52708 1.5649C4.7397 1.62923 4.23197 1.75286 3.82054 1.96249C3.02085 2.36995 2.37068 3.02012 1.96322 3.81981C1.75359 4.23124 1.62996 4.73897 1.56563 5.52635C1.50058 6.32249 1.5 7.33676 1.5 8.74927V12.9776C1.5 14.6464 2.85284 15.9993 4.52166 15.9993H5.12341C6.43311 15.9993 7.32867 17.322 6.84226 18.5381C6.71197 18.8638 7.08709 19.1582 7.37255 18.9543L9.98329 17.0895L10.0402 17.049C10.9993 16.3732 12.1422 16.0069 13.3155 15.9994L13.3854 15.9993H13.9342C15.6761 15.9993 16.3863 15.9916 16.9458 15.8276C18.3348 15.4203 19.421 14.3341 19.8283 12.9451C19.9924 12.3856 20 11.6754 20 9.93349V8.74927C20 8.08592 19.9999 7.51041 19.993 7.00407C19.9894 6.7377 20.1646 6.50147 20.407 6.391Z" fill="#FAFAFA"/>
</svg>
