<svg width="24" height="24" viewBox="0 0 24 24" fill="none" xmlns="http://www.w3.org/2000/svg">
<path fill-rule="evenodd" clip-rule="evenodd" d="M11.1 1.24927C7.70442 1.24927 5.07724 4.2253 5.49841 7.59463L5.57776 8.22948C5.69388 9.15843 5.35455 10.0863 4.66654 10.7212C3.24086 12.0368 2.84477 14.1308 3.69142 15.8762L3.79477 16.0893C4.54092 17.6275 6.05598 18.6349 7.74728 18.7401L7.93556 19.0629C8.94835 20.7991 10.5264 21.7493 12.1834 21.7493C13.8404 21.7493 15.4184 20.7991 16.4312 19.0629L16.6225 18.7351C18.0431 18.6227 19.3385 17.8505 20.1111 16.6366C21.2932 14.7792 20.9801 12.3425 19.3668 10.8442L19.3229 10.8035C18.5844 10.1176 18.2208 9.11839 18.3458 8.11828L18.4104 7.60135C18.832 4.22844 16.202 1.24927 12.8029 1.24927H11.1ZM8.16917 17.2493C8.17819 17.2491 8.18721 17.2491 8.19621 17.2493H16.1706C16.1796 17.2491 16.1886 17.2491 16.1976 17.2493H16.2623C17.3092 17.2493 18.2835 16.7144 18.8456 15.8312C19.6391 14.5845 19.4289 12.949 18.3461 11.9434L18.3022 11.9026C17.2102 10.8885 16.6725 9.41101 16.8574 7.93223L16.922 7.41529C17.2317 4.93767 15.2998 2.74927 12.8029 2.74927H11.1C8.60667 2.74927 6.67757 4.93452 6.98682 7.40858L7.06618 8.04343C7.24234 9.45272 6.72755 10.8604 5.68379 11.8236C4.74404 12.6908 4.48294 14.071 5.04102 15.2215L5.14438 15.4346C5.68275 16.5445 6.8079 17.2493 8.04147 17.2493H8.16917ZM12.1834 20.2493C11.2623 20.2493 10.2795 19.787 9.52013 18.7493H14.8467C14.0873 19.787 13.1045 20.2493 12.1834 20.2493Z" fill="#EEEEEE"/>
</svg>
