<svg width="19" height="19" viewBox="0 0 19 19" fill="none" xmlns="http://www.w3.org/2000/svg">
<path d="M10.25 1.16663C10.25 0.735153 9.91421 0.385376 9.5 0.385376C9.08579 0.385376 8.75 0.735154 8.75 1.16663L8.75 8.71871H1.5C1.08579 8.71871 0.75 9.06849 0.75 9.49996C0.75 9.93143 1.08579 10.2812 1.5 10.2812H8.75V17.8333C8.75 18.2648 9.08579 18.6145 9.5 18.6145C9.91421 18.6145 10.25 18.2648 10.25 17.8333V10.2812H17.5C17.9142 10.2812 18.25 9.93143 18.25 9.49996C18.25 9.06849 17.9142 8.71871 17.5 8.71871H10.25L10.25 1.16663Z" fill="#FAFAFA"/>
</svg>
