<svg width="18" height="18" viewBox="0 0 18 18" fill="none" xmlns="http://www.w3.org/2000/svg">
<path d="M6.30163 3.60174C6.60847 3.55314 6.81781 3.26501 6.76921 2.95817C6.72061 2.65134 6.43248 2.44199 6.12564 2.49059C4.28036 2.78286 2.83313 4.23009 2.54086 6.07537C2.49226 6.38221 2.70161 6.67034 3.00844 6.71894C3.31528 6.76754 3.60341 6.5582 3.65201 6.25136C3.86803 4.88745 4.93772 3.81776 6.30163 3.60174Z" fill="#A9A9A9"/>
<path fill-rule="evenodd" clip-rule="evenodd" d="M7.55029 0.1875C3.51171 0.1875 0.237793 3.46142 0.237793 7.5C0.237793 11.5386 3.51171 14.8125 7.55029 14.8125C11.5889 14.8125 14.8628 11.5386 14.8628 7.5C14.8628 3.46142 11.5889 0.1875 7.55029 0.1875ZM1.36279 7.5C1.36279 4.08274 4.13303 1.3125 7.55029 1.3125C10.9676 1.3125 13.7378 4.08274 13.7378 7.5C13.7378 10.9173 10.9676 13.6875 7.55029 13.6875C4.13303 13.6875 1.36279 10.9173 1.36279 7.5Z" fill="#A9A9A9"/>
<path d="M13.9481 13.1023C13.7284 12.8827 13.3723 12.8827 13.1526 13.1023C12.9329 13.322 12.9329 13.6781 13.1526 13.8978L16.1525 16.8978C16.3722 17.1174 16.7283 17.1174 16.948 16.8978C17.1677 16.6781 17.1677 16.322 16.948 16.1023L13.9481 13.1023Z" fill="#A9A9A9"/>
</svg>
