<svg width="25" height="24" viewBox="0 0 25 24" fill="none" xmlns="http://www.w3.org/2000/svg">
<path fill-rule="evenodd" clip-rule="evenodd" d="M24.2137 6.59165C24.9267 2.87396 21.6628 -0.389933 17.9451 0.323061L7.27119 2.37015C4.95087 2.81515 3.09524 4.5715 2.50569 6.8537C1.32863 11.4102 5.55434 15.5746 10.0916 14.2403C10.2169 14.2034 10.3333 14.3198 10.2965 14.4451C8.96219 18.9824 13.1265 23.2081 17.6831 22.0311C19.9653 21.4415 21.7216 19.5859 22.1666 17.2656L24.2137 6.59165ZM18.2747 2.04174C20.7776 1.56172 22.975 3.75912 22.495 6.26204L20.4479 16.9359C20.1314 18.5867 18.878 19.9149 17.2454 20.3367C13.9821 21.1797 11.0311 18.15 11.9754 14.9388C12.403 13.4847 11.052 12.1337 9.59789 12.5613C6.38675 13.5057 3.35708 10.5547 4.20007 7.2914C4.62183 5.65873 5.9501 4.4054 7.6008 4.08882L18.2747 2.04174Z" fill="#FAFAFA"/>
<path d="M3.76863 17.0558C4.11034 16.7141 4.11034 16.1601 3.76863 15.8184C3.42693 15.4767 2.87291 15.4767 2.5312 15.8184L0.881282 17.4683C0.539573 17.81 0.539573 18.364 0.881281 18.7057C1.22299 19.0474 1.77701 19.0474 2.11872 18.7057L3.76863 17.0558Z" fill="#FAFAFA"/>
<path d="M7.89342 17.8808C8.23513 17.5391 8.23513 16.9851 7.89342 16.6433C7.55171 16.3016 6.9977 16.3016 6.65599 16.6433L5.00607 18.2933C4.66436 18.635 4.66436 19.189 5.00607 19.5307C5.34778 19.8724 5.9018 19.8724 6.24351 19.5307L7.89342 17.8808Z" fill="#FAFAFA"/>
<path d="M8.71838 22.0056C9.06009 21.6639 9.06009 21.1098 8.71838 20.7681C8.37667 20.4264 7.82265 20.4264 7.48095 20.7681L5.83103 22.4181C5.48932 22.7598 5.48932 23.3138 5.83103 23.6555C6.17274 23.9972 6.72676 23.9972 7.06847 23.6555L8.71838 22.0056Z" fill="#FAFAFA"/>
</svg>
