<svg width="19" height="14" viewBox="0 0 19 14" fill="none" xmlns="http://www.w3.org/2000/svg">
<path d="M4.4502 4.1875C4.13953 4.1875 3.8877 4.43934 3.8877 4.75C3.8877 5.06066 4.13953 5.3125 4.4502 5.3125H7.4502C7.76086 5.3125 8.0127 5.06066 8.0127 4.75C8.0127 4.43934 7.76086 4.1875 7.4502 4.1875H4.4502Z" fill="#A9A9A9"/>
<path fill-rule="evenodd" clip-rule="evenodd" d="M9.95899 0.490459C9.31073 0.437494 8.50415 0.437497 7.47536 0.4375H7.42503C6.39624 0.437497 5.58966 0.437494 4.9414 0.490459C4.28129 0.544392 3.73596 0.656034 3.24236 0.907535C2.43091 1.32099 1.77118 1.98072 1.35773 2.79217C1.10623 3.28576 0.994587 3.8311 0.940654 4.4912C0.887689 5.13946 0.887692 5.94604 0.887695 6.97483V7.02517C0.887692 8.05396 0.887689 8.86054 0.940654 9.5088C0.994587 10.1689 1.10623 10.7142 1.35773 11.2078C1.77118 12.0193 2.43091 12.679 3.24236 13.0925C3.73596 13.344 4.28129 13.4556 4.9414 13.5095C5.58965 13.5625 6.39621 13.5625 7.42497 13.5625H7.47538C8.50414 13.5625 9.31074 13.5625 9.95899 13.5095C10.6191 13.4556 11.1644 13.344 11.658 13.0925C12.4695 12.679 13.1292 12.0193 13.5427 11.2078C13.5802 11.1342 13.6146 11.0594 13.6462 10.9832C14.5212 11.3655 15.2378 11.6758 15.8194 11.8336C16.4381 12.0014 17.0407 12.036 17.5795 11.6835C18.1182 11.3309 18.3279 10.7649 18.4218 10.1308C18.5127 9.51673 18.5127 8.70681 18.5127 7.71263V6.28737C18.5127 5.29319 18.5127 4.48327 18.4218 3.86925C18.3279 3.23514 18.1182 2.66905 17.5795 2.31653C17.0407 1.96401 16.4381 1.99858 15.8194 2.16642C15.2378 2.32421 14.5212 2.63453 13.6462 3.01682C13.6146 2.94061 13.5802 2.86581 13.5427 2.79217C13.1292 1.98072 12.4695 1.32099 11.658 0.907535C11.1644 0.656034 10.6191 0.544392 9.95899 0.490459ZM13.9742 9.8988L13.9216 9.8758C14.0128 9.16021 14.0127 8.2625 14.0127 7.07888V6.9212C14.0127 5.7376 14.0128 4.83979 13.9216 4.1242L13.9742 4.1012C14.9392 3.67953 15.6049 3.39027 16.114 3.25217C16.6129 3.11682 16.8236 3.16633 16.9635 3.25791C17.1035 3.34948 17.2332 3.52268 17.3089 4.03409C17.3862 4.55584 17.3877 5.28166 17.3877 6.33478V7.66522C17.3877 8.71833 17.3862 9.44416 17.3089 9.96591C17.2332 10.4773 17.1035 10.6505 16.9635 10.7421C16.8236 10.8337 16.6129 10.8832 16.114 10.7478C15.6049 10.6097 14.9392 10.3205 13.9742 9.8988ZM3.7531 1.90992C4.06167 1.75269 4.44247 1.65997 5.03301 1.61172C5.63011 1.56294 6.39081 1.5625 7.4502 1.5625C8.50958 1.5625 9.27028 1.56294 9.86738 1.61172C10.4579 1.65997 10.8387 1.75269 11.1473 1.90992C11.7471 2.21551 12.2347 2.70314 12.5403 3.30291C12.6277 3.4744 12.6949 3.66793 12.7456 3.90583C12.8846 4.55699 12.8877 5.45315 12.8877 7C12.8877 8.54655 12.8846 9.44266 12.7457 10.0938C12.695 10.3319 12.6277 10.5255 12.5403 10.6971C12.2347 11.2969 11.7471 11.7845 11.1473 12.0901C10.8387 12.2473 10.4579 12.34 9.86738 12.3883C9.27028 12.4371 8.50958 12.4375 7.4502 12.4375C6.39081 12.4375 5.63011 12.4371 5.03301 12.3883C4.44247 12.34 4.06167 12.2473 3.7531 12.0901C3.15333 11.7845 2.66571 11.2969 2.36011 10.6971C2.20289 10.3885 2.11017 10.0077 2.06192 9.41719C2.01313 8.82009 2.0127 8.05938 2.0127 7C2.0127 5.94062 2.01313 5.17991 2.06192 4.58281C2.11017 3.99228 2.20289 3.61148 2.36011 3.30291C2.66571 2.70314 3.15333 2.21551 3.7531 1.90992Z" fill="#A9A9A9"/>
</svg>
