<svg width="24" height="24" viewBox="0 0 24 24" fill="none" xmlns="http://www.w3.org/2000/svg">
<path fill-rule="evenodd" clip-rule="evenodd" d="M12.7695 3.33122C11.9345 3.08783 11.1322 3.42111 10.3627 3.90657C9.5898 4.39413 8.65177 5.16725 7.47816 6.13454L6.43797 6.99183C6.23851 7.15623 6.15785 7.22243 6.07791 7.282C5.40104 7.78639 4.5893 8.07779 3.74617 8.11906C3.6466 8.12393 3.54225 8.12414 3.28377 8.12414L3.2422 8.12413C3.01938 8.12406 2.8477 8.12402 2.69421 8.14119C1.41758 8.28404 0.409921 9.2917 0.267071 10.5683C0.249896 10.7218 0.249945 10.8935 0.250007 11.1163V12.3462C0.249945 12.5691 0.249896 12.7407 0.267071 12.8942C0.409921 14.1709 1.41758 15.1785 2.69421 15.3214C2.84771 15.3385 3.01939 15.3385 3.24221 15.3384L3.28377 15.3384C3.54225 15.3384 3.6466 15.3386 3.74617 15.3435C4.5893 15.3848 5.40104 15.6762 6.07791 16.1806C6.15785 16.2401 6.23851 16.3063 6.43797 16.4707L7.47814 17.328C8.65176 18.2953 9.5898 19.0684 10.3627 19.556C11.1322 20.0415 11.9345 20.3747 12.7695 20.1313C13.0467 20.0506 13.3094 19.9267 13.548 19.7642C14.2669 19.2746 14.5199 18.4435 14.6347 17.5409C14.75 16.6344 14.75 15.4188 14.75 13.898V9.5646C14.75 8.04374 14.75 6.82816 14.6347 5.92165C14.5199 5.01906 14.2669 4.18798 13.548 3.69839C13.3094 3.5359 13.0467 3.412 12.7695 3.33122ZM8.38797 7.32849C9.61585 6.3165 10.4806 5.60571 11.163 5.17522C11.8584 4.73653 12.1694 4.71871 12.3498 4.7713C12.4758 4.80801 12.5952 4.86434 12.7036 4.93819C12.8589 5.04397 13.043 5.29528 13.1467 6.11093C13.2485 6.91131 13.25 8.0307 13.25 9.62186V13.8407C13.25 15.4319 13.2485 16.5512 13.1467 17.3516C13.043 18.1673 12.8589 18.4186 12.7036 18.5244C12.5952 18.5982 12.4758 18.6545 12.3498 18.6913C12.1694 18.7438 11.8584 18.726 11.163 18.2873C10.4806 17.8569 9.61585 17.1461 8.38797 16.1341L7.37636 15.3003C7.19728 15.1527 7.0871 15.0619 6.9742 14.9778C6.05843 14.2954 4.96019 13.9011 3.81949 13.8453C3.67886 13.8384 3.53609 13.8384 3.30402 13.8384H3.28377C2.99997 13.8384 2.91982 13.8372 2.86101 13.8307C2.28072 13.7657 1.8227 13.3077 1.75777 12.7274C1.75119 12.6686 1.75002 12.5885 1.75002 12.3047V11.1579C1.75002 10.8741 1.75119 10.7939 1.75777 10.7351C1.8227 10.1548 2.28072 9.69682 2.86101 9.63189C2.91982 9.62531 2.99997 9.62414 3.28377 9.62414H3.30403C3.53607 9.62414 3.67887 9.62414 3.81949 9.61726C4.96019 9.56144 6.05843 9.16719 6.9742 8.48478C7.08711 8.40064 7.19728 8.30983 7.37636 8.16223L8.38797 7.32849Z" fill="#FAFAFA"/>
<path d="M19.5303 4.20095C19.2375 3.90806 18.7626 3.90806 18.4697 4.20095C18.1768 4.49384 18.1768 4.96871 18.4697 5.26161L19.1697 5.96161C19.7784 6.57032 20.0473 6.84028 20.2496 7.08234C22.4986 9.77364 22.4986 13.6889 20.2496 16.3802C20.0473 16.6223 19.7784 16.8922 19.1697 17.5009L18.4697 18.2009C18.1768 18.4938 18.1768 18.9687 18.4697 19.2616C18.7626 19.5545 19.2375 19.5545 19.5303 19.2616L20.266 18.526C20.8295 17.9624 21.1497 17.6422 21.4006 17.3421C24.1149 14.0939 24.1149 9.36861 21.4006 6.12049C21.1497 5.82031 20.8295 5.50009 20.266 4.93656L19.5303 4.20095Z" fill="#FAFAFA"/>
<path d="M17.5303 7.20095C17.2375 6.90806 16.7626 6.90806 16.4697 7.20095C16.1768 7.49384 16.1768 7.96872 16.4697 8.26161L16.8697 8.66161C16.8774 8.66932 16.8845 8.67647 16.8912 8.6831C16.9376 8.72955 16.9591 8.75117 16.9769 8.76942C18.5796 10.4188 18.5796 13.0438 16.9769 14.6931C16.9566 14.714 16.9314 14.7392 16.8697 14.8009L16.4697 15.2009C16.1768 15.4938 16.1768 15.9687 16.4697 16.2616C16.7626 16.5545 17.2375 16.5545 17.5303 16.2616L17.9357 15.8562C17.9425 15.8494 17.9493 15.8427 17.9555 15.8365C17.9989 15.7931 18.0275 15.7643 18.0526 15.7385C20.2211 13.507 20.2211 9.95551 18.0526 7.72406C18.0239 7.6945 17.9905 7.6611 17.9357 7.60626L17.5303 7.20095Z" fill="#FAFAFA"/>
</svg>
